<svg xmlns="http://www.w3.org/2000/svg" viewBox="0 0 64 64" width="64" height="64" fill="none">
  <defs>
    <linearGradient id="s" x1="0%" y1="0%" x2="100%" y2="100%">
      <stop offset="0%" stop-color="#fb923c" />
      <stop offset="60%" stop-color="#ea580c" />
      <stop offset="100%" stop-color="#b91c1c" />
    </linearGradient>
  </defs>

  <!-- Calendar Body — White sheet -->
  <rect x="2" y="10" width="60" height="52" rx="8" fill="#ffffff" stroke="#cbd5e1" stroke-width="1.5" />

  <!-- Saffron Header -->
  <path d="M2 18C2 13.582 5.582 10 10 10H54C58.418 10 62 13.582 62 18V24H2V18Z" fill="url(#s)" />

  <!-- Binder Pegs -->
  <rect x="16" y="2" width="8" height="18" rx="4" fill="#64748b" />
  <rect x="40" y="2" width="8" height="18" rx="4" fill="#64748b" />

  <!-- Date Grid Row 1 -->
  <rect x="10" y="30" width="10" height="10" rx="2.5" fill="#f1f5f9" stroke="#cbd5e1" stroke-width="1" />
  <rect x="27" y="30" width="10" height="10" rx="2.5" fill="#f1f5f9" stroke="#cbd5e1" stroke-width="1" />
  <rect x="44" y="30" width="10" height="10" rx="2.5" fill="#f1f5f9" stroke="#cbd5e1" stroke-width="1" />

  <!-- Date Grid Row 2 -->
  <rect x="10" y="46" width="10" height="10" rx="2.5" fill="#f1f5f9" stroke="#cbd5e1" stroke-width="1" />
  <rect x="27" y="46" width="10" height="10" rx="2.5" fill="url(#s)" />
  <rect x="44" y="46" width="10" height="10" rx="2.5" fill="#f1f5f9" stroke="#cbd5e1" stroke-width="1" />
</svg>
